<svg width="1080" height="1080" viewBox="0 0 1080 1080" fill="none" xmlns="http://www.w3.org/2000/svg">
<path d="M233.159 367.01C233.29 480.295 233.435 494.922 234.442 502.295C235.063 506.842 236.215 513.822 237.009 517.797C237.795 521.779 239.086 527.67 239.872 530.888C240.659 534.113 242.384 540.003 243.701 543.979C245.019 547.961 247.662 554.934 249.58 559.481C251.498 564.029 254.782 571.16 256.88 575.328C258.977 579.497 262.538 585.856 264.801 589.453C267.064 593.056 270.811 598.637 273.129 601.855C275.447 605.072 279.497 610.35 282.133 613.568C284.769 616.785 290.834 623.407 295.622 628.271C300.403 633.135 308.041 640.101 312.595 643.746C317.149 647.391 325.222 653.282 330.535 656.83C335.847 660.378 345.321 665.828 351.579 668.943C357.837 672.057 367.151 676.26 372.278 678.285C377.404 680.304 386.25 683.129 391.942 684.569C397.634 686.002 407.108 687.966 412.986 688.937C418.865 689.909 428.959 691.011 435.41 691.397C441.862 691.783 463.596 692.107 483.709 692.114L520.277 692.127C520.988 682.771 521.112 628.898 521.022 566.371C520.87 467.032 520.712 451.646 519.753 444.419C519.152 439.871 518.152 433.209 517.531 429.605C516.91 426.009 515.661 419.808 514.75 415.825C513.847 411.85 511.997 404.946 510.652 400.495C509.307 396.044 506.94 389.223 505.401 385.337C503.863 381.451 499.854 372.694 496.494 365.873C492.947 358.666 487.517 349.144 483.536 343.136C479.769 337.452 473.835 329.239 470.344 324.878C466.853 320.523 460.208 313.11 455.571 308.417C450.935 303.719 444.497 297.642 441.275 294.92C438.053 292.192 432.092 287.506 428.035 284.509C423.984 281.512 417.464 277.068 413.545 274.636C409.633 272.197 403.168 268.456 399.187 266.306C395.206 264.163 387.126 260.367 381.248 257.866C375.369 255.365 366.979 252.237 362.618 250.921C358.258 249.598 352.2 247.896 349.164 247.124C346.128 246.353 339.456 244.933 334.329 243.962C329.203 242.997 321.751 241.853 317.77 241.433C313.789 241.006 293.083 240.51 271.763 240.331L233 240L233.159 367.01ZM766.949 241.164C761.823 241.633 755.461 242.356 752.805 242.77C750.148 243.183 745.022 244.141 741.42 244.892C737.812 245.643 732.382 246.904 729.346 247.682C726.31 248.468 720.873 250.066 717.271 251.231C713.663 252.402 707.453 254.627 703.472 256.178C699.484 257.728 690.949 261.669 684.498 264.935C678.046 268.208 669.042 273.306 664.488 276.276C659.935 279.238 652.483 284.489 647.929 287.934C643.009 291.661 634.578 299.247 627.175 306.612C618.302 315.438 612.533 321.901 607.186 329.005C603.053 334.503 597.195 342.874 594.18 347.608C591.165 352.348 586.294 361.181 583.361 367.244C580.429 373.307 577.103 380.597 575.965 383.436C574.826 386.281 572.763 391.862 571.376 395.838C569.99 399.82 567.968 406.483 566.885 410.651C565.802 414.819 563.98 423.811 562.842 430.632C561.696 437.453 560.585 444.433 560.365 446.134C560.144 447.843 559.661 453.886 559.295 459.57C558.895 465.798 558.605 543.352 558.577 654.556C558.55 756.115 558.722 839.366 558.957 839.552C559.192 839.745 571.542 839.938 586.404 839.993C601.266 840.041 620.882 839.828 629.99 839.511C640.374 839.153 650.275 838.388 656.554 837.465C662.053 836.658 668.573 835.549 671.043 834.998C673.506 834.447 678.164 833.365 681.393 832.6C684.615 831.835 690.983 829.941 695.537 828.39C700.091 826.847 707.073 824.208 711.061 822.527C715.043 820.853 721.722 817.773 725.896 815.685C730.07 813.605 737.163 809.67 741.662 806.949C746.16 804.227 754.392 798.619 759.946 794.485C767.336 788.98 773.387 783.619 782.481 774.504C790.967 765.988 797.101 759.098 801.841 752.738C805.664 747.626 810.452 740.805 812.494 737.581C814.53 734.363 818.097 728.162 820.422 723.801C822.754 719.446 826.08 712.777 827.826 708.987C829.571 705.198 832.407 698.225 834.132 693.485C835.85 688.751 837.934 682.702 838.748 680.049C839.569 677.397 841.149 670.886 842.267 665.58C843.378 660.275 844.806 652.834 845.441 649.044C846.489 642.754 846.607 624.826 846.793 441.139L847 240.124C789.643 240.276 772.738 240.634 766.949 241.164Z" fill="#D49D7D"/>
</svg>